<?xml version="1.0" standalone="no"?>
<!DOCTYPE svg PUBLIC "-//W3C//DTD SVG 20010904//EN"
 "http://www.w3.org/TR/2001/REC-SVG-20010904/DTD/svg10.dtd">
<svg version="1.0" xmlns="http://www.w3.org/2000/svg"
 width="643.000000pt" height="643.000000pt" viewBox="0 0 643.000000 643.000000"
 preserveAspectRatio="xMidYMid meet">
<metadata>
Created by potrace 1.14, written by Peter Selinger 2001-2017
</metadata>
<g transform="translate(0.000000,643.000000) scale(0.100000,-0.100000)"
fill="#000000" stroke="none">
<path d="M2295 5099 c-434 -63 -806 -387 -929 -810 -26 -90 -46 -213 -46 -280
l0 -39 570 0 570 0 0 570 0 570 -52 -1 c-29 -1 -80 -5 -113 -10z"/>
<path d="M2640 4540 l0 -570 575 0 575 0 0 570 0 570 -575 0 -575 0 0 -570z"/>
<path d="M3970 4541 l0 -571 571 0 572 0 -7 90 c-8 112 -44 256 -90 361 -167
386 -540 654 -956 685 l-90 7 0 -572z"/>
<path d="M1320 3743 c0 -73 26 -219 55 -308 56 -170 136 -304 259 -433 209
-218 439 -326 764 -357 l62 -6 0 576 0 575 -570 0 -570 0 0 -47z"/>
<path d="M2645 3778 c-3 -7 -4 -265 -3 -573 l3 -560 570 0 570 0 0 570 0 570
-568 3 c-449 2 -569 0 -572 -10z"/>
<path d="M3970 3215 l0 -576 63 6 c181 18 316 54 449 121 283 142 502 410 587
715 22 80 41 207 41 270 l0 39 -570 0 -570 0 0 -575z"/>
<path d="M2640 1890 l0 -570 575 0 575 0 0 570 0 570 -575 0 -575 0 0 -570z"/>
</g>
</svg>
